<svg xmlns="http://www.w3.org/2000/svg" width="170" height="25" viewBox="0 0 170 25"><g><g><path fill="#1d1d1b" d="M0 0h5.198v19.297H16.72v4.378H-.001zm27.114 6.067c5.397 0 8.873 3.582 8.873 9.053 0 5.437-3.476 9.018-8.873 9.018-5.363 0-8.84-3.58-8.84-9.018 0-5.471 3.477-9.053 8.84-9.053 5.364 0 0 0 0 0zm0 14.524c3.212 0 4.172-2.752 4.172-5.471 0-2.753-.96-5.505-4.172-5.505-3.178 0-4.138 2.752-4.138 5.505 0 2.719.96 5.47 4.138 5.47zm23.24-8.025c-.297-1.922-1.522-2.951-3.476-2.951-3.012 0-4.005 3.053-4.005 5.57 0 2.456.96 5.405 3.906 5.405 2.185 0 3.444-1.391 3.742-3.48h4.536c-.596 4.542-3.742 7.028-8.244 7.028-5.166 0-8.642-3.647-8.642-8.786 0-5.339 3.178-9.285 8.74-9.285 4.04 0 7.748 2.122 8.046 6.5zM57.805.001h4.701V12.7l5.926-6.167h5.563l-6.456 6.299 7.184 10.843h-5.695l-4.701-7.66-1.82 1.758v5.902h-4.702zm18.407 6.532h4.469V8.92h.1c1.19-1.923 3.244-2.852 5.23-2.852 5 0 6.258 2.82 6.258 7.062v10.544h-4.702v-9.682c0-2.819-.827-4.21-3.012-4.21-2.55 0-3.642 1.424-3.642 4.906v8.986H76.21zM95.213.001h5.199v19.296h11.52v4.378H95.214zm27.115 6.066c5.397 0 8.872 3.582 8.872 9.053 0 5.437-3.475 9.018-8.872 9.018-5.364 0-8.84-3.58-8.84-9.018 0-5.471 3.476-9.053 8.84-9.053zm0 14.524c3.212 0 4.171-2.752 4.171-5.471 0-2.753-.96-5.505-4.171-5.505-3.178 0-4.138 2.752-4.138 5.505 0 2.719.96 5.47 4.138 5.47zm23.24-8.025c-.298-1.922-1.522-2.951-3.476-2.951-3.013 0-4.005 3.053-4.005 5.57 0 2.456.96 5.405 3.906 5.405 2.185 0 3.444-1.391 3.742-3.48h4.535c-.596 4.542-3.741 7.028-8.244 7.028-5.165 0-8.641-3.647-8.641-8.786 0-5.339 3.178-9.285 8.74-9.285 4.04 0 7.748 2.122 8.046 6.5zm7.45-12.565h4.7V12.7l5.926-6.167h5.564l-6.456 6.299 7.184 10.843h-5.695l-4.702-7.66-1.82 1.758v5.902h-4.701z"/></g></g></svg>