<svg xmlns="http://www.w3.org/2000/svg" viewBox="0 0 80 80"><path d="M32.52 39.69a2.92 2.92 0 112.91-2.92 2.92 2.92 0 01-2.91 2.92zm-8.76-2.92a2.92 2.92 0 10-2.92 2.92 2.92 2.92 0 002.92-2.92zm23.35 0a2.92 2.92 0 10-2.92 2.92 2.91 2.91 0 002.92-2.92zM18.82 56.55a31.34 31.34 0 0013.7 3.12c15 0 27.27-10.28 27.27-22.9s-12.23-22.9-27.27-22.9S5.24 24.14 5.24 36.77a20.24 20.24 0 004.81 12.95l-4 13.91zm39-19.78c0 11.52-11.34 20.9-25.27 20.9a29.27 29.27 0 01-13.27-3.14l-.47-.24-9.49 5.25 2.94-10.3-.35-.4a18.41 18.41 0 01-4.67-12.07c0-11.52 11.34-20.9 25.28-20.9s25.27 9.38 25.27 20.9zm14.61 18.49a18.27 18.27 0 002-8.27 18.51 18.51 0 00-9.91-16.39l-.94 1.77A16.52 16.52 0 0172.39 47a16.34 16.34 0 01-1.9 7.67l-.16.32L72 62.88l-6.39-2.56-.44.3a16.54 16.54 0 01-18.37.19l-1.09 1.67a18.53 18.53 0 0020.14.09l8.89 3.56z"/></svg>