<svg xmlns="http://www.w3.org/2000/svg" viewBox="0 0 80 80"><path d="M55.93 36.13c4.07-.12 7.35-1.39 9.72-3.81 4.28-4.32 4.64-11.25 4.55-16.06a4.81 4.81 0 00-4.84-4.76H14.64a4.81 4.81 0 00-4.84 4.76c-.09 4.81.27 11.69 4.55 16.06 2.37 2.42 5.65 3.68 9.72 3.81a14.16 14.16 0 0011.56 7.69v1.38a2.75 2.75 0 01-2.75 2.8 4.83 4.83 0 00-4.83 4.82v3.52h-4.48a1 1 0 00-1 1v9.1h-3.11a1 1 0 000 2.07h41.08a1 1 0 000-2.07h-3.08v-9.1a1 1 0 00-1-1H52v-3.57A4.83 4.83 0 0047.12 48a2.75 2.75 0 01-2.75-2.75v-1.43a14.16 14.16 0 0011.56-7.69zm12.2-19.83c.09 4.43-.23 10.76-4 14.57A11.26 11.26 0 0156.79 34a14.11 14.11 0 00.67-4.29V13.57h7.9a2.76 2.76 0 012.77 2.73zm-52.3 14.57c-3.73-3.81-4.05-10.14-4-14.57a2.76 2.76 0 012.77-2.73h7.9v16.16a14.11 14.11 0 00.71 4.27 11.26 11.26 0 01-7.38-3.13zm39.56 35.56H24.61v-8.07h30.78zM47.12 50a2.76 2.76 0 012.76 2.75v3.52H30.12v-3.5A2.76 2.76 0 0132.88 50a4.83 4.83 0 004.82-4.8v-2.38a1 1 0 00-1-1 12.06 12.06 0 01-12-12.06V13.57h30.69v16.16a12.06 12.06 0 01-12 12.06 1 1 0 00-1 1v2.41a4.83 4.83 0 004.73 4.8z"/></svg>